<svg width="24" height="24" viewBox="0 0 24 24" fill="none" xmlns="http://www.w3.org/2000/svg">
  <path fill-rule="evenodd" clip-rule="evenodd" d="M18 5H6C4.34315 5 3 6.34315 3 8V16C3 17.6569 4.34315 19 6 19H18C19.6569 19 21 17.6569 21 16V8C21 6.34315 19.6569 5 18 5ZM4.5 16C4.5 15.1716 5.17157 14.5 6 14.5H6.5C7.32843 14.5 8 15.1716 8 16C8 16.8284 7.32843 17.5 6.5 17.5H6C5.17157 17.5 4.5 16.8284 4.5 16ZM6 7.5C5.17157 7.5 4.5 8.17157 4.5 9C4.5 9.82843 5.17157 10.5 6 10.5H16H18C18.8284 10.5 19.5 9.82843 19.5 9C19.5 8.17157 18.8284 7.5 18 7.5H16H6Z" fill="#F68D3C"/>
  <path d="M6 5.5H18V4.5H6V5.5ZM3.5 8C3.5 6.61929 4.61929 5.5 6 5.5V4.5C4.067 4.5 2.5 6.067 2.5 8H3.5ZM3.5 16V8H2.5V16H3.5ZM6 18.5C4.61929 18.5 3.5 17.3807 3.5 16H2.5C2.5 17.933 4.067 19.5 6 19.5V18.5ZM18 18.5H6V19.5H18V18.5ZM20.5 16C20.5 17.3807 19.3807 18.5 18 18.5V19.5C19.933 19.5 21.5 17.933 21.5 16H20.5ZM20.5 8V16H21.5V8H20.5ZM18 5.5C19.3807 5.5 20.5 6.61929 20.5 8H21.5C21.5 6.067 19.933 4.5 18 4.5V5.5ZM6 14C4.89543 14 4 14.8954 4 16H5C5 15.4477 5.44772 15 6 15V14ZM6.5 14H6V15H6.5V14ZM8.5 16C8.5 14.8954 7.60457 14 6.5 14V15C7.05228 15 7.5 15.4477 7.5 16H8.5ZM6.5 18C7.60457 18 8.5 17.1046 8.5 16H7.5C7.5 16.5523 7.05228 17 6.5 17V18ZM6 18H6.5V17H6V18ZM4 16C4 17.1046 4.89543 18 6 18V17C5.44772 17 5 16.5523 5 16H4ZM5 9C5 8.44772 5.44772 8 6 8V7C4.89543 7 4 7.89543 4 9H5ZM6 10C5.44772 10 5 9.55228 5 9H4C4 10.1046 4.89543 11 6 11V10ZM16 10H6V11H16V10ZM18 10H16V11H18V10ZM19 9C19 9.55228 18.5523 10 18 10V11C19.1046 11 20 10.1046 20 9H19ZM18 8C18.5523 8 19 8.44772 19 9H20C20 7.89543 19.1046 7 18 7V8ZM16 8H18V7H16V8ZM6 8H16V7H6V8Z" fill="#F68D3C"/>
</svg>
