<svg width="24" height="24" viewBox="0 0 24 24" fill="none" xmlns="http://www.w3.org/2000/svg">
  <path fill-rule="evenodd" clip-rule="evenodd" d="M15.9838 9.20312C15.9838 6.58281 16.1666 4.02344 16.3494 3.475C16.5322 2.92656 16.9588 2.5 17.2025 2.5C18.0556 2.5 18.4213 4.38906 18.4213 9.20312C18.4213 13.4688 18.5431 14.0172 19.64 14.3828C20.3103 14.5656 20.8588 15.175 20.8588 15.6625C20.8588 16.3328 19.9447 16.5156 17.2025 16.5156C14.4603 16.5156 13.5463 16.3328 13.5463 15.6625C13.5463 15.175 14.0947 14.5656 14.765 14.3828C15.8619 14.0172 15.9838 13.4688 15.9838 9.20312ZM7.45251 10.4219C7.14783 10.4219 6.84314 9.99531 6.84314 9.50781C6.84314 9.02031 7.14783 8.59375 7.45251 8.59375C7.81814 8.59375 8.06189 9.02031 8.06189 9.50781C8.06189 9.99531 7.81814 10.4219 7.45251 10.4219Z" fill="#F68D3C"/>
  <path d="M9.28064 10.4219C9.28064 11.0922 9.7072 11.6406 10.1947 11.6406C10.6822 11.6406 11.1088 11.0922 11.1088 10.4219C11.1088 9.75156 10.6822 9.20312 10.1947 9.20312C9.7072 9.20312 9.28064 9.75156 9.28064 10.4219Z" fill="#F68D3C"/>
  <path d="M4.40564 11.3359C4.40564 11.8234 3.97908 12.25 3.49158 12.25C3.00408 12.25 2.57751 12.6766 2.57751 13.1641C2.57751 13.8953 3.55251 14.0781 7.45251 14.0781C11.3525 14.0781 12.3275 13.8953 12.3275 13.1641C12.3275 12.4937 11.5963 12.25 9.28064 12.25C6.96501 12.25 6.23376 12.0062 6.23376 11.3359C6.23376 10.8484 5.8072 10.4219 5.3197 10.4219C4.8322 10.4219 4.40564 10.8484 4.40564 11.3359Z" fill="#F68D3C"/>
  <path d="M2.88219 15.4797C1.60251 16.15 1.72438 17.2469 3.18688 18.5266C3.85719 19.075 4.40563 20.1109 4.40563 20.7813C4.40563 21.8172 4.83219 22 7.39157 22H10.3775L10.8041 19.4406C10.9869 17.9781 11.3525 16.3328 11.5353 15.7234C11.7791 14.7484 11.4134 14.6875 7.81813 14.8094C5.62438 14.8703 3.36969 15.175 2.88219 15.4797ZM4.58844 15.7234C4.16188 15.8453 3.79626 16.3938 3.79626 16.8813C3.79626 17.4297 3.49157 17.6125 3.18688 17.4297C2.39469 16.9422 3.55251 15.2969 4.64938 15.3578C5.07594 15.3578 5.01501 15.4797 4.58844 15.7234Z" fill="#F68D3C"/>
  <path d="M13.3635 17.4906C13.1197 17.7344 12.9369 18.8312 12.9369 19.9891V22H17.2635H21.5291L21.3463 19.6844L21.1635 17.4297L17.5072 17.2469C15.4353 17.125 13.6072 17.2469 13.3635 17.4906Z" fill="#F68D3C"/>
</svg>
