<svg width="24" height="24" viewBox="0 0 24 24" fill="none" xmlns="http://www.w3.org/2000/svg">
  <path d="M20.2222 13L19.3526 6.5963C19.1506 5.10911 17.8807 4 16.3799 4H7.62013C6.11929 4 4.84938 5.10911 4.64742 6.5963L3.77778 13M20.2222 13L20.6299 16.6687C20.8273 18.4458 19.4362 20 17.6482 20H6.3518C4.56376 20 3.17269 18.4458 3.37014 16.6687L3.77778 13M20.2222 13H17.6056C16.6025 13 15.6658 13.5013 15.1094 14.3359L14.8906 14.6641C14.3342 15.4987 13.3975 16 12.3944 16H11.6056C10.6025 16 9.6658 15.4987 9.1094 14.6641L8.8906 14.3359C8.3342 13.5013 7.39751 13 6.39445 13H3.77778M10 11H14M8 8H16" stroke="#F68D3C" stroke-width="1.5" stroke-linecap="round" stroke-linejoin="round"/>
</svg>
