<svg width="24" height="24" viewBox="0 0 24 24" fill="none" xmlns="http://www.w3.org/2000/svg">
  <path fill-rule="evenodd" clip-rule="evenodd" d="M7.99645 21.9748C6.85695 22.1759 6.78992 21.3715 6.78992 12.0544C6.78992 2.7373 6.85695 1.93294 7.99645 2.13403C9.00189 2.33512 9.13595 3.34056 9.13595 12.0544C9.13595 20.7683 9.00189 21.7737 7.99645 21.9748ZM2.90221 12.7918C2.83518 7.83158 2.90221 3.3406 3.1033 2.80436C3.30439 2.33515 3.84063 2.00001 4.30983 2.20109C4.9131 2.40218 5.11419 4.94931 5.11419 12.1215C5.11419 20.2321 4.98013 21.7737 4.10874 21.7737C3.30439 21.7737 3.1033 20.2321 2.90221 12.7918Z" fill="#F68D3C"/>
  <path d="M10.4095 2.87139C10.2754 3.34059 10.2084 7.76455 10.2754 12.7247C10.4765 20.7013 10.6106 21.7737 11.6831 21.9748C12.7555 22.1759 12.8226 21.3716 12.8226 12.1215C12.8226 3.47465 12.6885 2 11.8171 2C11.2139 2 10.6106 2.40218 10.4095 2.87139Z" fill="#F68D3C"/>
  <path d="M14.4983 2.80435C14.2972 3.34059 14.2302 7.83157 14.2972 12.7918C14.4983 20.2321 14.6994 21.7737 15.5038 21.7737C16.3751 21.7737 16.5092 20.2321 16.5092 12.1215C16.5092 4.9493 16.3081 2.40217 15.7049 2.20108C15.2356 1.99999 14.6994 2.33514 14.4983 2.80435Z" fill="#F68D3C"/>
  <path d="M17.9168 3.00544C17.3135 4.68118 17.4476 20.2991 18.1179 21.3716C18.453 21.9078 19.1904 22.1089 19.7936 21.9078C20.7321 21.5056 20.8661 20.2321 20.7321 11.9204C20.531 3.74277 20.3969 2.33515 19.4585 2.13406C18.8552 2 18.1849 2.40218 17.9168 3.00544Z" fill="#F68D3C"/>
  <path d="M21.8046 12.0545C21.8046 16.2773 21.8716 18.0201 22.0057 15.8752C22.1397 13.7972 22.1397 10.3117 22.0057 8.16675C21.8716 6.08883 21.8046 7.8316 21.8046 12.0545Z" fill="#F68D3C"/>
  <path d="M1.09239 19.3607C0.891298 19.6958 1.02536 20.165 1.42753 20.4331C1.76268 20.6342 2.09783 20.3661 2.09783 19.8299C2.09783 18.6233 1.69565 18.4223 1.09239 19.3607Z" fill="#F68D3C"/>
</svg>
