<svg width="24" height="24" viewBox="0 0 24 24" fill="none" xmlns="http://www.w3.org/2000/svg">
  <path fill-rule="evenodd" clip-rule="evenodd" d="M13.5915 6.18727C12.9769 8.33819 12.2395 6.80182 12.6696 4.40508C12.9155 3.36035 13.2842 2.49998 13.5915 2.49998C14.206 2.49998 14.206 3.9749 13.5915 6.18727ZM16.6027 5.26545C16.234 5.51127 15.9882 4.95818 15.9882 4.03636C15.9882 3.11453 16.234 2.56144 16.6027 2.80726C16.9715 2.99162 17.2173 3.54472 17.2173 4.03636C17.2173 4.52799 16.9715 5.08109 16.6027 5.26545Z" fill="#F68D3C"/>
  <path d="M18.4464 4.95819C18.4464 5.26546 18.7536 5.57274 19.1224 5.57274C19.4296 5.57274 19.5525 5.26546 19.3682 4.95819C19.1838 4.58946 18.8765 4.34364 18.6922 4.34364C18.5693 4.34364 18.4464 4.58946 18.4464 4.95819Z" fill="#F68D3C"/>
  <path d="M6.76993 6.55603C6.03247 7.35494 6.70848 8.21531 11.1332 12.7015C13.9601 15.5284 16.5412 17.8023 16.8485 17.6793C17.1558 17.5564 17.7089 17.0033 18.0776 16.4503C18.6307 15.5899 17.8933 14.5452 13.8372 10.4891C11.1332 7.78512 8.61357 5.57275 8.24485 5.57275C7.87612 5.57275 7.20011 6.00293 6.76993 6.55603Z" fill="#F68D3C"/>
  <path d="M17.8318 7.9695C15.6809 8.58405 17.2173 9.32151 19.614 8.89132C20.6588 8.6455 21.3348 8.27678 21.1504 7.9695C20.7817 7.35495 20.0442 7.35495 17.8318 7.9695Z" fill="#F68D3C"/>
  <path d="M6.1554 10.7964C6.1554 11.3495 6.70849 11.7182 7.44595 11.7182C8.55213 11.7182 8.61359 11.5953 7.99904 10.7964C7.56886 10.3048 7.01576 9.87458 6.70849 9.87458C6.40121 9.87458 6.1554 10.3048 6.1554 10.7964Z" fill="#F68D3C"/>
  <path d="M18.3849 11.1651C17.8318 11.4724 17.8318 11.7182 18.262 11.7182C18.6307 11.7182 19.3682 11.9026 19.9212 12.087C20.4743 12.2713 20.9045 12.2099 20.9045 11.8411C20.9045 10.9193 19.3682 10.5506 18.3849 11.1651Z" fill="#F68D3C"/>
  <path d="M5.17212 13.0088C4.55757 14.0535 5.6023 14.6066 8.92086 15.0368C11.9321 15.4055 11.9321 15.4055 10.7645 14.2379C9.28959 12.8859 5.78667 12.087 5.17212 13.0088Z" fill="#F68D3C"/>
  <path d="M4.00444 16.0201C3.75862 16.4503 3.88153 17.0034 4.31171 17.2492C5.4179 17.9252 11.9321 18.6012 13.0997 18.1095C14.8205 17.495 13.7758 16.819 10.3343 16.3888C8.55209 16.143 6.46263 15.8357 5.78663 15.6514C5.04917 15.467 4.25026 15.6514 4.00444 16.0201Z" fill="#F68D3C"/>
  <path d="M2.4681 20.0761C2.09938 20.9979 1.91501 21.8583 2.03792 21.9812C2.22228 22.1041 3.88156 21.6124 5.78666 20.875C7.75322 20.199 9.22813 19.523 9.10522 19.4001C8.98231 19.3386 7.63031 19.0313 5.97103 18.847C3.20556 18.4168 3.0212 18.4783 2.4681 20.0761Z" fill="#F68D3C"/>
</svg>
