<svg width="24" height="24" viewBox="0 0 24 24" fill="none" xmlns="http://www.w3.org/2000/svg">
  <path fill-rule="evenodd" clip-rule="evenodd" d="M5.27446 10.1262C5 10.723 5 11.4019 5 12.7596V17C5 18.8856 5 19.8284 5.58579 20.4142C6.17157 21 7.11438 21 9 21L9 16C9 15.4477 9.44772 15 10 15H14C14.5523 15 15 15.4477 15 16V21C16.8856 21 17.8284 21 18.4142 20.4142C19 19.8284 19 18.8856 19 17V12.7596C19 11.4019 19 10.723 18.7255 10.1262C18.4511 9.52949 17.9356 9.08769 16.9047 8.20407L15.9047 7.34693C14.0414 5.7498 13.1098 4.95123 12 4.95123C10.8902 4.95123 9.95857 5.7498 8.09525 7.34693L7.09525 8.20407C6.06437 9.08769 5.54892 9.52949 5.27446 10.1262Z" fill="#F68D3C"/>
  <path d="M9 21V21.85H9.85V21H9ZM9 16H9.85H9ZM15 21H14.15V21.85H15V21ZM16.9047 8.20407L17.4579 7.5587L17.4579 7.5587L16.9047 8.20407ZM15.9047 7.34693L15.3516 7.99229L15.3516 7.99229L15.9047 7.34693ZM8.09525 7.34693L8.64842 7.99229H8.64842L8.09525 7.34693ZM7.09525 8.20407L6.54208 7.5587H6.54208L7.09525 8.20407ZM5.85 12.7596C5.85 11.3241 5.86818 10.8695 6.0467 10.4814L4.50223 9.77106C4.13182 10.5764 4.15 11.4796 4.15 12.7596H5.85ZM5.85 17V12.7596H4.15V17H5.85ZM6.18683 19.8132C6.07819 19.7045 5.97619 19.5317 5.91564 19.0813C5.85181 18.6065 5.85 17.9668 5.85 17H4.15C4.15 17.9188 4.14819 18.6934 4.2308 19.3078C4.3167 19.9467 4.5076 20.5381 4.98475 21.0153L6.18683 19.8132ZM9 20.15C8.03316 20.15 7.39354 20.1482 6.91872 20.0844C6.46834 20.0238 6.29547 19.9218 6.18683 19.8132L4.98475 21.0153C5.46189 21.4924 6.05331 21.6833 6.6922 21.7692C7.30663 21.8518 8.08122 21.85 9 21.85V20.15ZM8.15 16L8.15 21H9.85V16H8.15ZM10 14.15C8.97827 14.15 8.15 14.9783 8.15 16H9.85C9.85 15.9172 9.91716 15.85 10 15.85V14.15ZM14 14.15H10V15.85H14V14.15ZM15.85 16C15.85 14.9783 15.0217 14.15 14 14.15V15.85C14.0828 15.85 14.15 15.9172 14.15 16H15.85ZM15.85 21V16H14.15V21H15.85ZM17.8132 19.8132C17.7045 19.9218 17.5317 20.0238 17.0813 20.0844C16.6065 20.1482 15.9668 20.15 15 20.15V21.85C15.9188 21.85 16.6934 21.8518 17.3078 21.7692C17.9467 21.6833 18.5381 21.4924 19.0153 21.0153L17.8132 19.8132ZM18.15 17C18.15 17.9668 18.1482 18.6065 18.0844 19.0813C18.0238 19.5317 17.9218 19.7045 17.8132 19.8132L19.0153 21.0153C19.4924 20.5381 19.6833 19.9467 19.7692 19.3078C19.8518 18.6934 19.85 17.9188 19.85 17H18.15ZM18.15 12.7596V17H19.85V12.7596H18.15ZM17.9533 10.4814C18.1318 10.8695 18.15 11.3241 18.15 12.7596H19.85C19.85 11.4796 19.8682 10.5764 19.4978 9.77106L17.9533 10.4814ZM16.3516 8.84944C17.4415 9.78368 17.7748 10.0933 17.9533 10.4814L19.4978 9.77106C19.1274 8.96571 18.4297 8.39169 17.4579 7.5587L16.3516 8.84944ZM15.3516 7.99229L16.3516 8.84944L17.4579 7.5587L16.4579 6.70156L15.3516 7.99229ZM12 5.80123C12.3251 5.80123 12.6715 5.9095 13.2014 6.25942C13.7511 6.62249 14.4032 7.17942 15.3516 7.99229L16.4579 6.70156C15.543 5.9173 14.7976 5.27639 14.1382 4.84089C13.459 4.39225 12.7846 4.10123 12 4.10123V5.80123ZM8.64842 7.99229C9.59678 7.17942 10.2489 6.62249 10.7986 6.25942C11.3285 5.9095 11.6749 5.80123 12 5.80123V4.10123C11.2154 4.10123 10.541 4.39225 9.86176 4.84089C9.20237 5.27639 8.45704 5.9173 7.54208 6.70156L8.64842 7.99229ZM7.64842 8.84944L8.64842 7.99229L7.54208 6.70156L6.54208 7.5587L7.64842 8.84944ZM6.0467 10.4814C6.22522 10.0933 6.55848 9.78368 7.64842 8.84944L6.54208 7.5587C5.57025 8.39169 4.87263 8.96571 4.50223 9.77106L6.0467 10.4814Z" fill="#F68D3C"/>
</svg>
