<svg width="24" height="24" viewBox="0 0 24 24" fill="none" xmlns="http://www.w3.org/2000/svg">
  <path fill-rule="evenodd" clip-rule="evenodd" d="M12 3C16.971 3 21 7.029 21 12C21 16.971 16.971 21 12 21C7.029 21 3 16.971 3 12C3 7.029 7.029 3 12 3Z" fill="#F68D3C"/>
  <path fill-rule="evenodd" clip-rule="evenodd" d="M12 3.75C7.44321 3.75 3.75 7.44321 3.75 12C3.75 16.5568 7.44321 20.25 12 20.25C16.5568 20.25 20.25 16.5568 20.25 12C20.25 7.44321 16.5568 3.75 12 3.75ZM12 21.75C6.61479 21.75 2.25 17.3852 2.25 12C2.25 6.61479 6.61479 2.25 12 2.25C17.3852 2.25 21.75 6.61479 21.75 12C21.75 17.3852 17.3852 21.75 12 21.75Z" fill="#F68D3C"/>
  <path fill-rule="evenodd" clip-rule="evenodd" d="M12 6.75C12.4142 6.75 12.75 7.08579 12.75 7.5V12.5C12.75 12.9142 12.4142 13.25 12 13.25C11.5858 13.25 11.25 12.9142 11.25 12.5V7.5C11.25 7.08579 11.5858 6.75 12 6.75Z" fill="white"/>
  <path fill-rule="evenodd" clip-rule="evenodd" d="M11 16.2527C10.9975 15.6965 11.4487 15.25 11.999 15.25C12.5503 15.25 13 15.6958 13 16.25C13 16.8022 12.5522 17.25 12 17.25C11.4487 17.25 11.0015 16.8037 11 16.2527ZM11.2929 16.2533L11 16.2554C11 16.2545 11 16.2536 11 16.2527C11 16.2518 11 16.2509 11 16.25H11.2917C11.2921 16.2511 11.2925 16.2522 11.2929 16.2533ZM11.5 16.2518L11.2929 16.2533C11.3968 16.5429 11.6737 16.75 11.999 16.75C11.7263 16.75 11.501 16.5291 11.5 16.2518ZM11.5 16.25H11.75L11.5 16.2518C11.5 16.2512 11.5 16.2506 11.5 16.25ZM11.5 16.25C11.5 15.9741 11.7233 15.7505 11.999 15.75C11.9993 15.75 11.9997 15.75 12 15.75C12.2744 15.75 12.4971 15.9709 12.5 16.2446C12.5 16.2464 12.5 16.2482 12.5 16.25C12.4991 16.5286 12.2729 16.7495 12 16.75M11.5 16.25H11.2917H11.5Z" fill="white"/>
</svg>
