<svg width="24" height="24" viewBox="0 0 24 24" fill="none" xmlns="http://www.w3.org/2000/svg">
  <path d="M7.92867 7.92867L11.2234 11.2234M7.92867 7.92867H5.73217L5 5.73217L5.73217 5L7.92867 5.73217V7.92867ZM17.6365 5.54254L15.7126 7.4664C15.4227 7.75635 15.2777 7.90133 15.2234 8.0685C15.1756 8.21555 15.1756 8.37395 15.2234 8.52101C15.2777 8.68818 15.4227 8.83316 15.7126 9.12311L15.8863 9.29682C16.1763 9.58677 16.3213 9.73175 16.4884 9.78606C16.6355 9.83384 16.7939 9.83384 16.9409 9.78606C17.1081 9.73175 17.2531 9.58677 17.543 9.29682L19.3426 7.49722C19.5365 7.96885 19.6434 8.48541 19.6434 9.02692C19.6434 11.2509 17.8404 13.0538 15.6164 13.0538C15.3483 13.0538 15.0863 13.0276 14.8328 12.9776C14.4769 12.9075 14.2989 12.8724 14.191 12.8831C14.0763 12.8945 14.0198 12.9117 13.9182 12.9661C13.8226 13.0173 13.7267 13.1132 13.5349 13.305L8.29475 18.5451C7.68821 19.1516 6.7048 19.1516 6.09825 18.5451C5.4917 17.9385 5.4917 16.9551 6.09825 16.3486L11.3384 11.1085C11.5302 10.9167 11.6261 10.8208 11.6772 10.7252C11.7316 10.6235 11.7488 10.567 11.7602 10.4523C11.771 10.3444 11.7359 10.1665 11.6657 9.81052C11.6157 9.55705 11.5895 9.29505 11.5895 9.02692C11.5895 6.80291 13.3924 5 15.6164 5C16.3526 5 17.0427 5.19755 17.6365 5.54254ZM12.3217 14.5181L16.3486 18.545C16.9551 19.1516 17.9385 19.1516 18.5451 18.545C19.1516 17.9385 19.1516 16.9551 18.5451 16.3485L15.2323 13.0358C14.9978 13.0136 14.7691 12.9713 14.548 12.9106C14.2632 12.8324 13.9507 12.8891 13.7418 13.098L12.3217 14.5181Z" stroke="#F68D3C" stroke-width="1.46434" stroke-linecap="round" stroke-linejoin="round"/>
</svg>
