<svg width="24" height="24" viewBox="0 0 24 24" fill="none" xmlns="http://www.w3.org/2000/svg">
  <path fill-rule="evenodd" clip-rule="evenodd" d="M7.1932 6.84066C7.83388 4.77626 8.47455 2.85422 8.68811 2.49829C8.83049 2.21354 9.32879 1.99998 9.75591 1.99998C11.322 1.99998 18.1559 4.27795 18.583 4.91863C19.2237 5.98643 18.2271 10.5424 17.3017 10.5424C16.8746 10.5424 16.7322 9.90168 16.9457 8.97626C17.5152 6.76948 16.3762 5.061 13.8847 4.49151C10.6101 3.77965 9.11523 4.5627 8.40337 7.48134C8.04743 8.90507 7.40676 10.1864 6.97964 10.3288C6.33896 10.5424 6.41015 9.54575 7.1932 6.84066ZM2.21018 7.48132C2.70848 7.55251 3.20679 6.69827 3.49153 5.55929C3.77628 3.85081 4.27458 3.42369 5.7695 3.42369C7.62035 3.42369 7.62035 3.49488 6.55255 4.70505C5.12882 6.27115 4.98645 7.26776 6.2678 6.5559C6.97967 6.12878 6.97967 6.27115 6.2678 7.0542C5.7695 7.55251 5.34238 8.54912 5.34238 9.26098C5.34238 10.3288 4.91526 10.5423 3.42034 10.3288C1.99662 10.1152 1.42712 9.6881 1.42712 8.69149C1.42712 7.97963 1.78306 7.41014 2.21018 7.48132Z" fill="#F68D3C"/>
  <path d="M10.6101 5.41695C10.183 5.70169 9.47116 6.98305 9.04404 8.19322L8.26099 10.5424H12.0339C15.3796 10.5424 15.8779 10.3288 16.3051 8.90508C17.0169 6.34237 12.9593 3.77966 10.6101 5.41695Z" fill="#F68D3C"/>
  <path d="M19.3661 8.6915C19.0813 9.40336 19.0102 10.1864 19.2237 10.4C19.8644 11.0407 20.4339 9.97285 20.1491 8.62031C19.9356 7.41014 19.8644 7.41014 19.3661 8.6915Z" fill="#F68D3C"/>
  <path d="M1.21356 16.9492L1.42712 23H11.3932C21.217 23 21.3593 23 21.5729 21.3627C21.7864 20.0102 21.5017 19.7966 19.3661 19.7966C14.3119 19.7966 14.0983 15.3831 19.1525 14.9559C21.2881 14.7424 21.7153 14.4576 21.7153 13.0339V11.3254L11.3932 11.1119L1 10.8983L1.21356 16.9492Z" fill="#F68D3C"/>
  <path d="M16.3051 16.5932C15.5932 18.3017 16.661 19.0847 19.6508 19.0847C22.1424 19.0847 22.4271 18.8712 22.4271 17.3051C22.4271 15.6678 22.1424 15.5254 19.5797 15.5254C17.7288 15.5254 16.5186 15.8814 16.3051 16.5932ZM18.6542 18.0881C18.0136 18.7288 16.661 17.661 17.1593 16.8068C17.4441 16.3797 17.8712 16.3797 18.3695 16.878C18.7966 17.3051 18.939 17.8034 18.6542 18.0881Z" fill="#F68D3C"/>
</svg>
