<svg width="24" height="24" viewBox="0 0 24 24" fill="none" xmlns="http://www.w3.org/2000/svg">
  <path fill-rule="evenodd" clip-rule="evenodd" d="M5.24366 9C5.24366 5.27105 8.26918 2.25 11.9997 2.25C15.7301 2.25 18.7557 5.27105 18.7557 9V13C18.7557 13.7581 19.1001 14.4761 19.6921 14.9521L20.0011 15.2001C21.4716 16.3803 20.6346 18.75 18.7517 18.75H5.24766C3.36468 18.75 2.52769 16.3804 3.9982 15.2001L4.30721 14.9521C4.89977 14.4765 5.24366 13.7587 5.24366 13V9ZM10.5 20.25C10.0858 20.25 9.75 20.5858 9.75 21C9.75 21.4142 10.0858 21.75 10.5 21.75H13.5C13.9142 21.75 14.25 21.4142 14.25 21C14.25 20.5858 13.9142 20.25 13.5 20.25H10.5Z" fill="#F68D3C"/>
</svg>
