<svg width="24" height="24" viewBox="0 0 24 24" fill="none" xmlns="http://www.w3.org/2000/svg">
  <path d="M22 5C22 6.65685 20.6569 8 19 8C17.3431 8 16 6.65685 16 5C16 3.34315 17.3431 2 19 2C20.6569 2 22 3.34315 22 5Z" fill="#DF2039"/>
  <path fill-rule="evenodd" clip-rule="evenodd" d="M14.5375 2.7424C13.7539 2.42487 12.8972 2.25 11.9997 2.25C8.26918 2.25 5.24366 5.27105 5.24366 9V13C5.24366 13.7587 4.89977 14.4765 4.30721 14.9521L3.9982 15.2001C2.52769 16.3804 3.36468 18.75 5.24766 18.75H18.7517C20.6346 18.75 21.4716 16.3803 20.0011 15.2001L19.6921 14.9521C19.1001 14.4761 18.7557 13.7581 18.7557 13V9.99413C16.1077 9.86672 14 7.6795 14 5C14 4.18766 14.1937 3.42057 14.5375 2.7424ZM9.75 21C9.75 20.5858 10.0858 20.25 10.5 20.25H13.5C13.9142 20.25 14.25 20.5858 14.25 21C14.25 21.4142 13.9142 21.75 13.5 21.75H10.5C10.0858 21.75 9.75 21.4142 9.75 21Z" fill="#F68D3C"/>
</svg>
