<svg width="24" height="24" viewBox="0 0 24 24" fill="none" xmlns="http://www.w3.org/2000/svg">
  <path fill-rule="evenodd" clip-rule="evenodd" d="M14.4749 4.52513C15.8417 5.89197 15.8417 8.10804 14.4749 9.47488C13.108 10.8417 10.892 10.8417 9.52513 9.47488C8.15829 8.10804 8.15829 5.89197 9.52513 4.52513C10.892 3.15829 13.108 3.15829 14.4749 4.52513Z" fill="#F68D3C"/>
  <path fill-rule="evenodd" clip-rule="evenodd" d="M13.9446 5.05546C12.8706 3.98151 11.1294 3.98151 10.0555 5.05546C8.98151 6.12941 8.98151 7.8706 10.0555 8.94455C11.1294 10.0185 12.8706 10.0185 13.9446 8.94455C15.0185 7.8706 15.0185 6.12941 13.9446 5.05546ZM15.0052 3.9948C13.3455 2.33507 10.6545 2.33507 8.9948 3.9948C7.33507 5.65453 7.33507 8.34548 8.9948 10.0052C10.6545 11.6649 13.3455 11.6649 15.0052 10.0052C16.6649 8.34548 16.6649 5.65453 15.0052 3.9948Z" fill="#F68D3C"/>
  <path fill-rule="evenodd" clip-rule="evenodd" d="M4 18.5V19.5C4 20.052 4.448 20.5 5 20.5H19C19.552 20.5 20 20.052 20 19.5V18.5C20 15.474 16.048 13.508 12 13.508C7.952 13.508 4 15.474 4 18.5Z" fill="#F68D3C"/>
  <path fill-rule="evenodd" clip-rule="evenodd" d="M6.10466 14.2211C7.7321 13.2737 9.86712 12.758 12 12.758C14.1329 12.758 16.2679 13.2737 17.8953 14.2211C19.516 15.1646 20.75 16.6183 20.75 18.5V19.5C20.75 20.4662 19.9662 21.25 19 21.25H5C4.03379 21.25 3.25 20.4662 3.25 19.5V18.5C3.25 16.6183 4.48397 15.1646 6.10466 14.2211ZM6.85934 15.5174C5.49203 16.3134 4.75 17.3557 4.75 18.5V19.5C4.75 19.6378 4.86221 19.75 5 19.75H19C19.1378 19.75 19.25 19.6378 19.25 19.5V18.5C19.25 17.3557 18.508 16.3134 17.1407 15.5174C15.7801 14.7253 13.9151 14.258 12 14.258C10.0849 14.258 8.2199 14.7253 6.85934 15.5174Z" fill="#F68D3C"/>
</svg>
