<svg width="24" height="24" viewBox="0 0 24 24" fill="none" xmlns="http://www.w3.org/2000/svg">
  <path fill-rule="evenodd" clip-rule="evenodd" d="M3.97503 10.725C2.62503 7.42501 2.70003 6.30001 4.50003 4.50001C6.37503 2.62501 7.42503 2.62501 8.70003 4.27501C10.05 6.07501 9.97503 8.92501 8.62503 9.45001C7.65003 9.82501 7.65003 10.125 8.62503 12.075C9.30003 13.275 10.725 14.7 11.925 15.375C13.875 16.35 14.175 16.35 14.55 15.375C15.075 13.95 17.925 13.95 19.8 15.375C21 16.275 21.15 16.8 20.4 18.375C19.2 21.075 16.425 21.45 12.375 19.5C8.70003 17.7 5.55003 14.475 3.97503 10.725ZM15.675 5.25C14.475 4.725 13.5 3.975 13.5 3.6C13.5 2.475 16.725 3.75 18.45 5.55C20.25 7.275 21.525 10.5 20.4 10.5C20.025 10.5 19.275 9.525 18.75 8.325C18.3 7.125 16.875 5.7 15.675 5.25Z" fill="#F68D3C"/>
  <path d="M13.5 6.45001C13.5 7.12501 16.8 10.5 17.475 10.5C18.45 10.5 18 9.00001 16.5 7.50001C15.075 6.07501 13.5 5.55001 13.5 6.45001Z" fill="#F68D3C"/>
</svg>
