<svg width="24" height="24" viewBox="0 0 24 24" fill="none" xmlns="http://www.w3.org/2000/svg">
  <path fill-rule="evenodd" clip-rule="evenodd" d="M6.875 17.125V9.8125V2.5H14.1875H21.5V11.0312C21.5 18.7703 21.3781 19.6844 20.2812 20.7812C19.6109 21.4516 18.5141 22 17.8438 22C16.2594 22 14.1875 19.9281 14.1875 18.3438C14.1875 17.2469 13.7609 17.125 10.5312 17.125H6.875ZM11.1406 9.8125C12.7859 9.8125 12.9688 9.62969 12.9688 7.98438C12.9688 6.33906 12.7859 6.15625 11.1406 6.15625C9.49531 6.15625 9.3125 6.33906 9.3125 7.98438C9.3125 9.62969 9.49531 9.8125 11.1406 9.8125ZM16.625 8.59375C17.9656 8.59375 19.0625 8.28906 19.0625 7.98438C19.0625 7.61875 17.9656 7.375 16.625 7.375C15.2844 7.375 14.1875 7.61875 14.1875 7.98438C14.1875 8.28906 15.2844 8.59375 16.625 8.59375ZM11.1406 14.6875C12.7859 14.6875 12.9688 14.5047 12.9688 12.8594C12.9688 11.2141 12.7859 11.0312 11.1406 11.0312C9.49531 11.0312 9.3125 11.2141 9.3125 12.8594C9.3125 14.5047 9.49531 14.6875 11.1406 14.6875ZM16.625 13.4688C17.9656 13.4688 19.0625 13.1641 19.0625 12.8594C19.0625 12.4937 17.9656 12.25 16.625 12.25C15.2844 12.25 14.1875 12.4937 14.1875 12.8594C14.1875 13.1641 15.2844 13.4688 16.625 13.4688ZM11.1406 8.59375C10.8359 8.59375 10.5312 8.28906 10.5312 7.98438C10.5312 7.61875 10.8359 7.375 11.1406 7.375C11.5062 7.375 11.75 7.61875 11.75 7.98438C11.75 8.28906 11.5062 8.59375 11.1406 8.59375Z" fill="#F68D3C"/>
  <path d="M10.5312 12.8594C10.5312 13.1641 10.8359 13.4688 11.1406 13.4688C11.5063 13.4688 11.75 13.1641 11.75 12.8594C11.75 12.4937 11.5063 12.25 11.1406 12.25C10.8359 12.25 10.5312 12.4937 10.5312 12.8594Z" fill="#F68D3C"/>
  <path d="M2 18.9531C2 19.2578 2.54844 20.1109 3.21875 20.7812C4.25469 21.8172 5.22969 22 9.3125 22C11.9938 22 14.1875 21.8781 14.1875 21.6953C14.1875 21.5734 13.8828 20.7203 13.4563 19.8672C12.7859 18.4047 12.5422 18.3438 7.3625 18.3438C4.19375 18.3438 2 18.5875 2 18.9531Z" fill="#F68D3C"/>
</svg>
