<svg width="24" height="24" viewBox="0 0 24 24" fill="none" xmlns="http://www.w3.org/2000/svg">
  <path d="M12.892 3.69162C11.0989 1.89856 8.41378 1.53281 6.25497 2.58545L9.49318 5.82366C9.84109 6.17157 9.84109 6.73357 9.49318 7.08148L8.07479 8.49987C7.72688 8.8567 7.16488 8.8567 6.81697 8.49987L3.57876 5.26166C2.53504 7.42939 2.90079 10.0967 4.69385 11.8897C6.3531 13.549 8.77953 13.9861 10.8402 13.21L17.9411 20.3109C18.8599 21.2297 20.3408 21.2297 21.2507 20.3109C22.1695 19.392 22.1695 17.9112 21.2507 17.0013L14.1855 9.92718C15.0062 7.83974 14.578 5.37763 12.892 3.69162Z" fill="#F68D3C"/>
</svg>
