<svg width="24" height="24" viewBox="0 0 24 24" fill="none" xmlns="http://www.w3.org/2000/svg">
  <path fill-rule="evenodd" clip-rule="evenodd" d="M7.92593 10H5.07407C3.92815 10 3 9.07185 3 7.92593V5.07407C3 3.92815 3.92815 3 5.07407 3H7.92593C9.07185 3 10 3.92815 10 5.07407V7.92593C10 9.07185 9.07185 10 7.92593 10Z" fill="#F68D3C"/>
  <path fill-rule="evenodd" clip-rule="evenodd" d="M5.07407 3.75C4.34236 3.75 3.75 4.34236 3.75 5.07407V7.92593C3.75 8.65764 4.34236 9.25 5.07407 9.25H7.92593C8.65764 9.25 9.25 8.65764 9.25 7.92593V5.07407C9.25 4.34236 8.65764 3.75 7.92593 3.75H5.07407ZM2.25 5.07407C2.25 3.51393 3.51393 2.25 5.07407 2.25H7.92593C9.48607 2.25 10.75 3.51393 10.75 5.07407V7.92593C10.75 9.48607 9.48607 10.75 7.92593 10.75H5.07407C3.51393 10.75 2.25 9.48607 2.25 7.92593V5.07407Z" fill="#F68D3C"/>
  <path fill-rule="evenodd" clip-rule="evenodd" d="M18.9259 10H16.0741C14.9281 10 14 9.07185 14 7.92593V5.07407C14 3.92815 14.9281 3 16.0741 3H18.9259C20.0719 3 21 3.92815 21 5.07407V7.92593C21 9.07185 20.0719 10 18.9259 10Z" fill="#F68D3C"/>
  <path fill-rule="evenodd" clip-rule="evenodd" d="M16.0741 3.75C15.3424 3.75 14.75 4.34236 14.75 5.07407V7.92593C14.75 8.65764 15.3424 9.25 16.0741 9.25H18.9259C19.6576 9.25 20.25 8.65764 20.25 7.92593V5.07407C20.25 4.34236 19.6576 3.75 18.9259 3.75H16.0741ZM13.25 5.07407C13.25 3.51393 14.5139 2.25 16.0741 2.25H18.9259C20.4861 2.25 21.75 3.51393 21.75 5.07407V7.92593C21.75 9.48607 20.4861 10.75 18.9259 10.75H16.0741C14.5139 10.75 13.25 9.48607 13.25 7.92593V5.07407Z" fill="#F68D3C"/>
  <path fill-rule="evenodd" clip-rule="evenodd" d="M7.92593 21H5.07407C3.92815 21 3 20.0719 3 18.9259V16.0741C3 14.9281 3.92815 14 5.07407 14H7.92593C9.07185 14 10 14.9281 10 16.0741V18.9259C10 20.0719 9.07185 21 7.92593 21Z" fill="#F68D3C"/>
  <path fill-rule="evenodd" clip-rule="evenodd" d="M5.07407 14.75C4.34236 14.75 3.75 15.3424 3.75 16.0741V18.9259C3.75 19.6576 4.34236 20.25 5.07407 20.25H7.92593C8.65764 20.25 9.25 19.6576 9.25 18.9259V16.0741C9.25 15.3424 8.65764 14.75 7.92593 14.75H5.07407ZM2.25 16.0741C2.25 14.5139 3.51393 13.25 5.07407 13.25H7.92593C9.48607 13.25 10.75 14.5139 10.75 16.0741V18.9259C10.75 20.4861 9.48607 21.75 7.92593 21.75H5.07407C3.51393 21.75 2.25 20.4861 2.25 18.9259V16.0741Z" fill="#F68D3C"/>
  <path fill-rule="evenodd" clip-rule="evenodd" d="M18.9259 21H16.0741C14.9281 21 14 20.0719 14 18.9259V16.0741C14 14.9281 14.9281 14 16.0741 14H18.9259C20.0719 14 21 14.9281 21 16.0741V18.9259C21 20.0719 20.0719 21 18.9259 21Z" fill="#F68D3C"/>
  <path fill-rule="evenodd" clip-rule="evenodd" d="M16.0741 14.75C15.3424 14.75 14.75 15.3424 14.75 16.0741V18.9259C14.75 19.6576 15.3424 20.25 16.0741 20.25H18.9259C19.6576 20.25 20.25 19.6576 20.25 18.9259V16.0741C20.25 15.3424 19.6576 14.75 18.9259 14.75H16.0741ZM13.25 16.0741C13.25 14.5139 14.5139 13.25 16.0741 13.25H18.9259C20.4861 13.25 21.75 14.5139 21.75 16.0741V18.9259C21.75 20.4861 20.4861 21.75 18.9259 21.75H16.0741C14.5139 21.75 13.25 20.4861 13.25 18.9259V16.0741Z" fill="#F68D3C"/>
</svg>
