<svg width="24" height="24" viewBox="0 0 24 24" fill="none" xmlns="http://www.w3.org/2000/svg">
  <path fill-rule="evenodd" clip-rule="evenodd" d="M10.125 19.875C7.35002 17.175 7.65002 13.875 11.25 8.40001C12.9 5.85001 14.55 3.75001 15 3.75001C16.5 3.75001 21.75 12.9 21.75 15.525C21.75 21.225 14.25 24 10.125 19.875ZM17.7 18.75C18.3 18.75 19.2 17.925 19.65 16.875C20.175 15.675 20.25 14.7 19.8 14.325C19.425 13.875 18.6 14.7 17.925 16.2C16.875 18.3 16.875 18.75 17.7 18.75ZM3.60002 14.475C1.65002 12.75 1.95002 9.825 4.50002 5.775C5.70002 3.825 6.82502 2.25 7.05002 2.25C7.20002 2.25 7.87502 3.15 8.55002 4.2C9.75002 6 9.75002 6.225 7.95002 9.975C6.90002 12.075 6.00002 14.25 6.00002 14.775C6.00002 16.05 5.25002 15.975 3.60002 14.475Z" fill="#F68D3C"/>
</svg>
